<svg width="16" height="16" viewBox="0 0 16 16" fill="none" xmlns="http://www.w3.org/2000/svg">
<path fill-rule="evenodd" clip-rule="evenodd" d="M14.4714 10.1953C14.2111 9.93491 13.7889 9.93491 13.5286 10.1953L11.3333 12.3905L9.13807 10.1953C8.87772 9.93491 8.45561 9.93491 8.19526 10.1953C7.93491 10.4556 7.93491 10.8777 8.19526 11.1381L10.8619 13.8047C11.1223 14.0651 11.5444 14.0651 11.8047 13.8047L14.4714 11.1381C14.7318 10.8777 14.7318 10.4556 14.4714 10.1953Z" fill="#CBC1E0"/>
<path fill-rule="evenodd" clip-rule="evenodd" d="M11.3333 2C10.9651 2 10.6667 2.29848 10.6667 2.66667V13.3333C10.6667 13.7015 10.9651 14 11.3333 14C11.7015 14 12 13.7015 12 13.3333V2.66667C12 2.29848 11.7015 2 11.3333 2Z" fill="#CBC1E0"/>
<path fill-rule="evenodd" clip-rule="evenodd" d="M5.13807 2.19526C4.87772 1.93491 4.45561 1.93491 4.19526 2.19526L1.5286 4.86193C1.26825 5.12228 1.26825 5.54439 1.5286 5.80474C1.78895 6.06509 2.21106 6.06509 2.4714 5.80474L4.66667 3.60948L6.86193 5.80474C7.12228 6.06509 7.54439 6.06509 7.80474 5.80474C8.06509 5.54439 8.06509 5.12228 7.80474 4.86193L5.13807 2.19526Z" fill="#CBC1E0"/>
<path fill-rule="evenodd" clip-rule="evenodd" d="M4.66667 2C4.29848 2 4 2.29848 4 2.66667V13.3333C4 13.7015 4.29848 14 4.66667 14C5.03486 14 5.33334 13.7015 5.33334 13.3333V2.66667C5.33334 2.29848 5.03486 2 4.66667 2Z" fill="#CBC1E0"/>
</svg>
