<svg width="16" height="16" viewBox="0 0 16 16" fill="none" xmlns="http://www.w3.org/2000/svg">
<path fill-rule="evenodd" clip-rule="evenodd" d="M1.33333 6C1.70152 6 2 6.29848 2 6.66667V8.66667C2 9.03486 1.70152 9.33333 1.33333 9.33333C0.965141 9.33333 0.666664 9.03486 0.666664 8.66667V6.66667C0.666664 6.29848 0.965141 6 1.33333 6Z" fill="#7001FB"/>
<path fill-rule="evenodd" clip-rule="evenodd" d="M4 3.33325C4.36819 3.33325 4.66667 3.63173 4.66667 3.99992V11.3332C4.66667 11.7014 4.36819 11.9999 4 11.9999C3.63181 11.9999 3.33334 11.7014 3.33334 11.3332V3.99992C3.33334 3.63173 3.63181 3.33325 4 3.33325Z" fill="#7001FB"/>
<path fill-rule="evenodd" clip-rule="evenodd" d="M6.66667 1.33325C7.03486 1.33325 7.33333 1.63173 7.33333 1.99992V13.9999C7.33333 14.3681 7.03486 14.6666 6.66667 14.6666C6.29848 14.6666 6 14.3681 6 13.9999V1.99992C6 1.63173 6.29848 1.33325 6.66667 1.33325Z" fill="#7001FB"/>
<path fill-rule="evenodd" clip-rule="evenodd" d="M9.33333 4.66675C9.70152 4.66675 10 4.96522 10 5.33341V10.0001C10 10.3683 9.70152 10.6667 9.33333 10.6667C8.96514 10.6667 8.66666 10.3683 8.66666 10.0001V5.33341C8.66666 4.96522 8.96514 4.66675 9.33333 4.66675Z" fill="#7001FB"/>
<path fill-rule="evenodd" clip-rule="evenodd" d="M12 2.66675C12.3682 2.66675 12.6667 2.96522 12.6667 3.33341V12.0001C12.6667 12.3683 12.3682 12.6667 12 12.6667C11.6318 12.6667 11.3333 12.3683 11.3333 12.0001V3.33341C11.3333 2.96522 11.6318 2.66675 12 2.66675Z" fill="#7001FB"/>
<path fill-rule="evenodd" clip-rule="evenodd" d="M14.6667 6C15.0349 6 15.3333 6.29848 15.3333 6.66667V8.66667C15.3333 9.03486 15.0349 9.33333 14.6667 9.33333C14.2985 9.33333 14 9.03486 14 8.66667V6.66667C14 6.29848 14.2985 6 14.6667 6Z" fill="#7001FB"/>
</svg>
