<svg width="20" height="20" viewBox="0 0 20 20" fill="none" xmlns="http://www.w3.org/2000/svg">
<path d="M3.30781 7.94229L9.55781 14.1923C9.61586 14.2504 9.68479 14.2965 9.76066 14.328C9.83654 14.3594 9.91786 14.3756 10 14.3756C10.0821 14.3756 10.1635 14.3594 10.2393 14.328C10.3152 14.2965 10.3841 14.2504 10.4422 14.1923L16.6922 7.94229C16.8095 7.82502 16.8753 7.66596 16.8753 7.5001C16.8753 7.33425 16.8095 7.17519 16.6922 7.05792C16.5749 6.94064 16.4159 6.87476 16.25 6.87476C16.0841 6.87476 15.9251 6.94064 15.8078 7.05792L10 12.8665L4.19219 7.05792C4.13412 6.99985 4.06518 6.95378 3.98931 6.92236C3.91344 6.89093 3.83212 6.87476 3.75 6.87476C3.66788 6.87476 3.58656 6.89093 3.51069 6.92236C3.43482 6.95378 3.36588 6.99985 3.30781 7.05792C3.24974 7.11598 3.20368 7.18492 3.17225 7.26079C3.14083 7.33666 3.12465 7.41798 3.12465 7.5001C3.12465 7.58223 3.14083 7.66354 3.17225 7.73941C3.20368 7.81528 3.24974 7.88422 3.30781 7.94229Z" fill="white"/>
</svg>
