<svg width="20" height="20" viewBox="0 0 20 20" fill="none" xmlns="http://www.w3.org/2000/svg">
<path fill-rule="evenodd" clip-rule="evenodd" d="M2.50008 11.6666C2.96032 11.6666 3.33341 12.0397 3.33341 12.5V15.8333C3.33341 16.0543 3.42121 16.2663 3.57749 16.4225C3.73377 16.5788 3.94573 16.6666 4.16675 16.6666H15.8334C16.0544 16.6666 16.2664 16.5788 16.4227 16.4225C16.5789 16.2663 16.6667 16.0543 16.6667 15.8333V12.5C16.6667 12.0397 17.0398 11.6666 17.5001 11.6666C17.9603 11.6666 18.3334 12.0397 18.3334 12.5V15.8333C18.3334 16.4963 18.07 17.1322 17.6012 17.6011C17.1323 18.0699 16.4965 18.3333 15.8334 18.3333H4.16675C3.50371 18.3333 2.86782 18.0699 2.39898 17.6011C1.93014 17.1322 1.66675 16.4963 1.66675 15.8333V12.5C1.66675 12.0397 2.03984 11.6666 2.50008 11.6666Z" fill="#CBC1E0"/>
<path fill-rule="evenodd" clip-rule="evenodd" d="M5.24408 7.74408C5.56951 7.41864 6.09715 7.41864 6.42259 7.74408L10 11.3215L13.5774 7.74408C13.9028 7.41864 14.4305 7.41864 14.7559 7.74408C15.0814 8.06951 15.0814 8.59715 14.7559 8.92259L10.5893 13.0893C10.2638 13.4147 9.73618 13.4147 9.41074 13.0893L5.24408 8.92259C4.91864 8.59715 4.91864 8.06951 5.24408 7.74408Z" fill="#CBC1E0"/>
<path fill-rule="evenodd" clip-rule="evenodd" d="M10.0001 1.66663C10.4603 1.66663 10.8334 2.03972 10.8334 2.49996V12.5C10.8334 12.9602 10.4603 13.3333 10.0001 13.3333C9.53984 13.3333 9.16675 12.9602 9.16675 12.5V2.49996C9.16675 2.03972 9.53984 1.66663 10.0001 1.66663Z" fill="#CBC1E0"/>
</svg>
