<svg width="24" height="24" viewBox="0 0 24 24" fill="none" xmlns="http://www.w3.org/2000/svg">
<path d="M15.0001 12L6.62706 20.373C6.22923 20.7708 5.68967 20.9943 5.12706 20.9943C4.56445 20.9943 4.02488 20.7708 3.62706 20.373C3.22923 19.9752 3.00574 19.4356 3.00574 18.873C3.00574 18.3104 3.22923 17.7708 3.62706 17.373L12.0001 9M18.0001 15L22.0001 11M21.5001 11.5L19.5861 9.586C19.211 9.21101 19.0002 8.70239 19.0001 8.172V7L16.7401 4.74C15.6246 3.62518 14.1151 2.99436 12.5381 2.984L9.00006 2.96L9.92006 3.78C10.5735 4.35939 11.0968 5.0707 11.4553 5.86704C11.8138 6.66339 11.9995 7.52667 12.0001 8.4V10L14.0001 12H15.1721C15.7024 12.0001 16.2111 12.2109 16.5861 12.586L18.5001 14.5" stroke="white" stroke-width="2" stroke-linecap="round" stroke-linejoin="round"/>
</svg>
