<svg width="18" height="18" viewBox="0 0 18 18" fill="none" xmlns="http://www.w3.org/2000/svg">
<path fill-rule="evenodd" clip-rule="evenodd" d="M2.17785 2.92785C3.09209 2.01361 4.33207 1.5 5.625 1.5C6.36014 1.5 7.02989 1.60514 7.68511 1.89051C8.14477 2.09071 8.57408 2.36953 9 2.72951C9.42593 2.36953 9.85523 2.09071 10.3149 1.89051C10.9701 1.60514 11.6399 1.5 12.375 1.5C13.6679 1.5 14.9079 2.01361 15.8222 2.92785C16.7364 3.84209 17.25 5.08207 17.25 6.375C17.25 8.43137 15.893 9.93986 14.7776 11.033L9.53033 16.2803C9.23744 16.5732 8.76256 16.5732 8.46967 16.2803L3.22414 11.0348C2.09582 9.94353 0.75 8.43705 0.75 6.375C0.75 5.08207 1.26361 3.84209 2.17785 2.92785ZM5.625 3C4.7299 3 3.87145 3.35558 3.23852 3.98851C2.60558 4.62145 2.25 5.47989 2.25 6.375C2.25 7.76015 3.15053 8.87737 4.27127 9.96076L4.28033 9.96967L9 14.6893L13.7251 9.96428C14.8442 8.86766 15.75 7.75196 15.75 6.375C15.75 5.47989 15.3944 4.62145 14.7615 3.98851C14.1286 3.35558 13.2701 3 12.375 3C11.7901 3 11.3349 3.08236 10.9139 3.26574C10.488 3.45122 10.0501 3.76058 9.53033 4.28033C9.23744 4.57322 8.76256 4.57322 8.46967 4.28033C7.94992 3.76058 7.51202 3.45122 7.08614 3.26574C6.66511 3.08236 6.20986 3 5.625 3Z" fill="white"/>
</svg>
