<svg width="20" height="20" viewBox="0 0 20 20" fill="none" xmlns="http://www.w3.org/2000/svg">
<path fill-rule="evenodd" clip-rule="evenodd" d="M10.0032 1.6667L10 1.66669C8.35186 1.66669 6.7407 2.15543 5.37029 3.07111C3.99988 3.98679 2.93178 5.28828 2.30104 6.811C1.67031 8.33371 1.50529 10.0093 1.82683 11.6258C2.14837 13.2423 2.94205 14.7271 4.10749 15.8926C5.27292 17.058 6.75778 17.8517 8.37429 18.1732C9.9908 18.4948 11.6664 18.3298 13.1891 17.699C14.7118 17.0683 16.0133 16.0002 16.929 14.6298C17.8446 13.2594 18.3334 11.6482 18.3334 10C18.3334 9.53979 17.9603 9.16669 17.5 9.16669C17.0398 9.16669 16.6667 9.53979 16.6667 10C16.6667 11.3186 16.2757 12.6075 15.5432 13.7038C14.8106 14.8002 13.7694 15.6546 12.5513 16.1592C11.3331 16.6638 9.99265 16.7958 8.69944 16.5386C7.40623 16.2814 6.21835 15.6464 5.286 14.7141C4.35365 13.7817 3.71871 12.5938 3.46147 11.3006C3.20424 10.0074 3.33626 8.66698 3.84084 7.4488C4.34543 6.23063 5.19991 5.18944 6.29624 4.4569C7.39214 3.72464 8.68048 3.33367 9.99848 3.33336C11.8773 3.34083 13.6806 4.07323 15.0326 5.37773L16.9108 7.25595C17.2362 7.58139 17.7639 7.58139 18.0893 7.25595C18.4147 6.93051 18.4147 6.40287 18.0893 6.07744L16.206 4.1941L16.1959 4.18422C14.5338 2.57744 12.3149 1.6754 10.0032 1.6667Z" fill="#CBC1E0"/>
<path fill-rule="evenodd" clip-rule="evenodd" d="M17.5 1.66669C17.0398 1.66669 16.6667 2.03978 16.6667 2.50002V5.83335H13.3334C12.8731 5.83335 12.5 6.20645 12.5 6.66669C12.5 7.12692 12.8731 7.50002 13.3334 7.50002H17.5C17.9603 7.50002 18.3334 7.12692 18.3334 6.66669V2.50002C18.3334 2.03978 17.9603 1.66669 17.5 1.66669Z" fill="#CBC1E0"/>
<path fill-rule="evenodd" clip-rule="evenodd" d="M10 5C9.5398 5 9.16671 5.3731 9.16671 5.83333V9.48497L6.29403 10.9213C5.88238 11.1271 5.71553 11.6277 5.92135 12.0393C6.12718 12.451 6.62774 12.6178 7.03939 12.412L10.3727 10.7454C10.655 10.6042 10.8334 10.3156 10.8334 10V5.83333C10.8334 5.3731 10.4603 5 10 5Z" fill="#CBC1E0"/>
</svg>
