<svg width="16" height="16" viewBox="0 0 16 16" fill="none" xmlns="http://www.w3.org/2000/svg">
<path fill-rule="evenodd" clip-rule="evenodd" d="M9.33329 1.33334C9.70148 1.33334 9.99996 1.63181 9.99996 2V4.66667H12.6666C13.0348 4.66667 13.3333 4.96515 13.3333 5.33334C13.3333 5.70153 13.0348 6 12.6666 6H9.99996C9.64634 6 9.3072 5.85953 9.05715 5.60948C8.8071 5.35943 8.66663 5.02029 8.66663 4.66667V2C8.66663 1.63181 8.9651 1.33334 9.33329 1.33334Z" fill="#CBC1E0"/>
<path fill-rule="evenodd" clip-rule="evenodd" d="M4.66663 2.66667C4.48981 2.66667 4.32025 2.73691 4.19522 2.86193C4.0702 2.98696 3.99996 3.15652 3.99996 3.33334V8.66667C3.99996 9.03486 3.70148 9.33334 3.33329 9.33334C2.9651 9.33334 2.66663 9.03486 2.66663 8.66667V3.33334C2.66663 2.8029 2.87734 2.2942 3.25241 1.91912C3.62749 1.54405 4.13619 1.33334 4.66663 1.33334H9.33329C9.5101 1.33334 9.67967 1.40357 9.8047 1.5286L13.138 4.86193C13.2631 4.98696 13.3333 5.15653 13.3333 5.33334V12.6667C13.3333 13.1971 13.1226 13.7058 12.7475 14.0809C12.3724 14.456 11.8637 14.6667 11.3333 14.6667H7.66663C7.29844 14.6667 6.99996 14.3682 6.99996 14C6.99996 13.6318 7.29844 13.3333 7.66663 13.3333H11.3333C11.5101 13.3333 11.6797 13.2631 11.8047 13.1381C11.9297 13.013 12 12.8435 12 12.6667V5.60948L9.05715 2.66667H4.66663ZM3.52856 11.1381C3.26821 10.8777 3.26821 10.4556 3.52856 10.1953C3.7889 9.93492 4.21101 9.93492 4.47136 10.1953L6.47136 12.1953C6.73171 12.4556 6.73171 12.8777 6.47136 13.1381L4.47136 15.1381C4.21101 15.3984 3.7889 15.3984 3.52856 15.1381C3.26821 14.8777 3.26821 14.4556 3.52856 14.1953L4.39048 13.3333H1.33329C0.965103 13.3333 0.666626 13.0349 0.666626 12.6667C0.666626 12.2985 0.965103 12 1.33329 12H4.39048L3.52856 11.1381Z" fill="#CBC1E0"/>
</svg>
