<svg width="20" height="20" viewBox="0 0 20 20" fill="none" xmlns="http://www.w3.org/2000/svg">
<g clip-path="url(#clip0_9_368)">
<path fill-rule="evenodd" clip-rule="evenodd" d="M2.6875 10C2.6875 14.018 5.98198 17.3125 10 17.3125C14.018 17.3125 17.3125 14.018 17.3125 10C17.3125 5.98198 14.018 2.6875 10 2.6875C5.98198 2.6875 2.6875 5.98198 2.6875 10ZM10 19C5.05 19 1 14.95 1 10C1 5.05 5.05 1 10 1C14.95 1 19 5.05 19 10C19 14.95 14.95 19 10 19Z" fill="#CBC1E0"/>
<path d="M8.76251 15.1188C8.42501 14.5563 7.97501 14.05 7.41251 13.7125C6.85001 13.375 6.28751 13.0938 5.61251 12.925C5.55626 12.925 5.50001 12.925 5.44376 12.9813C5.38751 13.0375 5.38751 13.0938 5.38751 13.15C5.38751 13.2063 5.38751 13.2625 5.44376 13.2625C6.17501 14.3313 7.30001 15.1188 8.53751 15.4563H8.59376C8.65001 15.4563 8.65001 15.4563 8.70626 15.4563C8.70626 15.4563 8.76251 15.4563 8.76251 15.4L8.81876 15.3438C8.81876 15.3438 8.81876 15.2875 8.81876 15.2313C8.81876 15.175 8.81876 15.1188 8.76251 15.1188Z" fill="#CBC1E0"/>
<path d="M15.4 8.4813V8.42505C15.1188 7.41255 14.5563 6.51255 13.7688 5.83755C12.9813 5.16255 12.0813 4.6563 11.0688 4.48755H11.0125C10.9563 4.48755 10.9 4.48755 10.8438 4.5438C10.7875 4.60005 10.7875 4.6563 10.7875 4.71255V4.7688C11.2938 7.86255 10.9563 11.0125 9.83126 13.9376C9.83126 13.9938 9.77501 13.9938 9.77501 14.0501C9.77501 14.1063 9.71876 14.1063 9.66251 14.1063C9.60626 14.1063 9.60626 14.1063 9.55001 14.1063C9.55001 14.1063 9.49376 14.1063 9.49376 14.0501L9.43751 13.9938C9.43751 13.9938 9.43751 13.9376 9.43751 13.8813C9.43751 13.8813 9.38126 13.4876 9.38126 13.3188C9.04376 10.6188 8.25626 8.0313 6.96251 5.61255C6.96251 5.5563 6.90626 5.5563 6.90626 5.5563L6.85001 5.50005C6.85001 5.50005 6.79376 5.50005 6.73751 5.50005C6.68126 5.50005 6.68126 5.50005 6.62501 5.50005C5.83751 6.1188 5.21876 6.9063 4.82501 7.86255C4.82501 7.9188 4.82501 7.97505 4.82501 8.0313C4.82501 8.08755 4.88126 8.1438 4.93751 8.1438C6.17501 8.9313 7.18751 9.9438 7.91876 11.2376C8.65001 12.4751 9.04376 13.9376 9.10001 15.3438C9.10001 15.4001 9.10001 15.4563 9.15626 15.5126C9.21251 15.5688 9.26876 15.5688 9.26876 15.5688C9.38126 15.5688 9.55001 15.6251 9.66251 15.6251C9.71876 15.6251 9.77501 15.6251 9.83126 15.5688C9.88751 15.5126 9.88751 15.5126 9.88751 15.4563C10.1688 13.9938 10.7875 12.5876 11.7438 11.4063C12.7 10.225 13.8813 9.32505 15.2875 8.7063C15.3438 8.7063 15.3438 8.65005 15.4 8.65005C15.4 8.53755 15.4 8.53755 15.4 8.4813Z" fill="#CBC1E0"/>
<path d="M14.8937 12.7562C14.8937 12.7 14.8937 12.6438 14.8375 12.5875C14.7812 12.5313 14.725 12.5312 14.6687 12.5312H14.6125C12.8687 12.925 11.2937 13.8812 10.1687 15.2312C10.1125 15.2875 10.1125 15.3438 10.1125 15.4C10.1125 15.4562 10.1125 15.5125 10.1687 15.5687C10.225 15.625 10.2812 15.625 10.3375 15.625C11.2375 15.5687 12.1375 15.2875 12.925 14.8375C13.7125 14.3875 14.3875 13.7125 14.8375 12.925C14.8937 12.8688 14.8937 12.8125 14.8937 12.7562Z" fill="#CBC1E0"/>
</g>
<defs>
<clipPath id="clip0_9_368">
<rect width="18" height="18" fill="white" transform="translate(1 1)"/>
</clipPath>
</defs>
</svg>
