<svg width="20" height="20" viewBox="0 0 20 20" fill="none" xmlns="http://www.w3.org/2000/svg">
<path fill-rule="evenodd" clip-rule="evenodd" d="M13.1044 4.19878C13.5469 4.07234 14.0082 4.32859 14.1346 4.77112L17.4679 16.4378C17.5944 16.8803 17.3381 17.3416 16.8956 17.468C16.4531 17.5944 15.9918 17.3382 15.8654 16.8957L12.5321 5.22899C12.4056 4.78646 12.6619 4.32522 13.1044 4.19878Z" fill="#CBC1E0"/>
<path fill-rule="evenodd" clip-rule="evenodd" d="M9.99999 4.16663C10.4602 4.16663 10.8333 4.53972 10.8333 4.99996V16.6666C10.8333 17.1269 10.4602 17.5 9.99999 17.5C9.53975 17.5 9.16666 17.1269 9.16666 16.6666V4.99996C9.16666 4.53972 9.53975 4.16663 9.99999 4.16663Z" fill="#CBC1E0"/>
<path fill-rule="evenodd" clip-rule="evenodd" d="M6.66668 5.83337C7.12691 5.83337 7.50001 6.20647 7.50001 6.66671V16.6667C7.50001 17.1269 7.12691 17.5 6.66668 17.5C6.20644 17.5 5.83334 17.1269 5.83334 16.6667V6.66671C5.83334 6.20647 6.20644 5.83337 6.66668 5.83337Z" fill="#CBC1E0"/>
<path fill-rule="evenodd" clip-rule="evenodd" d="M3.33333 2.5C3.79357 2.5 4.16667 2.8731 4.16667 3.33333V16.6667C4.16667 17.1269 3.79357 17.5 3.33333 17.5C2.8731 17.5 2.5 17.1269 2.5 16.6667V3.33333C2.5 2.8731 2.8731 2.5 3.33333 2.5Z" fill="#CBC1E0"/>
</svg>
