<svg width="20" height="20" viewBox="0 0 20 20" fill="none" xmlns="http://www.w3.org/2000/svg">
<path fill-rule="evenodd" clip-rule="evenodd" d="M16.6667 4.16667C17.127 4.16667 17.5001 4.53976 17.5001 5V15C17.5001 15.4602 17.127 15.8333 16.6667 15.8333H3.33341C2.87318 15.8333 2.50008 15.4602 2.50008 15V5C2.50008 4.53976 2.87318 4.16667 3.33341 4.16667H16.6667ZM19.1667 5C19.1667 3.61929 18.0475 2.5 16.6667 2.5H3.33341C1.9527 2.5 0.833413 3.61929 0.833413 5V15C0.833413 16.3807 1.9527 17.5 3.33341 17.5H16.6667C18.0475 17.5 19.1667 16.3807 19.1667 15V5Z" fill="black"/>
<path fill-rule="evenodd" clip-rule="evenodd" d="M19.0367 5.38639C18.7898 4.99795 18.2748 4.88315 17.8864 5.12999L10.414 9.87831C10.2898 9.95566 10.1463 9.99667 9.99998 9.99667C9.8536 9.99667 9.71017 9.95566 9.58594 9.87831C9.58532 9.87793 9.5847 9.87754 9.58408 9.87715L2.11358 5.12999C1.72514 4.88315 1.21014 4.99795 0.963302 5.38639C0.716464 5.77484 0.83126 6.28984 1.2197 6.53667L8.69919 11.2895C9.08908 11.5338 9.53988 11.6633 9.99998 11.6633C10.4601 11.6633 10.9109 11.5338 11.3007 11.2895L11.3053 11.2867L18.7802 6.53667C19.1687 6.28984 19.2835 5.77484 19.0367 5.38639Z" fill="black"/>
</svg>
