<svg width="20" height="20" viewBox="0 0 20 20" fill="none" xmlns="http://www.w3.org/2000/svg">
<path fill-rule="evenodd" clip-rule="evenodd" d="M8.33325 10C8.33325 9.07957 9.07944 8.33337 9.99992 8.33337C10.9204 8.33337 11.6666 9.07957 11.6666 10C11.6666 10.9205 10.9204 11.6667 9.99992 11.6667C9.07944 11.6667 8.33325 10.9205 8.33325 10Z" fill="#CBC1E0"/>
<path fill-rule="evenodd" clip-rule="evenodd" d="M8.33325 4.16667C8.33325 3.24619 9.07944 2.5 9.99992 2.5C10.9204 2.5 11.6666 3.24619 11.6666 4.16667C11.6666 5.08714 10.9204 5.83333 9.99992 5.83333C9.07944 5.83333 8.33325 5.08714 8.33325 4.16667Z" fill="#CBC1E0"/>
<path fill-rule="evenodd" clip-rule="evenodd" d="M8.33325 15.8333C8.33325 14.9128 9.07944 14.1666 9.99992 14.1666C10.9204 14.1666 11.6666 14.9128 11.6666 15.8333C11.6666 16.7538 10.9204 17.5 9.99992 17.5C9.07944 17.5 8.33325 16.7538 8.33325 15.8333Z" fill="#CBC1E0"/>
</svg>
