<svg width="20" height="20" viewBox="0 0 20 20" fill="none" xmlns="http://www.w3.org/2000/svg">
<g clip-path="url(#clip0_179_503)">
<path fill-rule="evenodd" clip-rule="evenodd" d="M10.5886 6.07668C10.9144 6.40176 10.915 6.92939 10.5899 7.25519L3.05657 14.8052C3.04386 14.8179 3.03074 14.8303 3.01723 14.8421C2.86161 14.9791 2.73573 15.1465 2.64734 15.334C2.55896 15.5215 2.50996 15.7252 2.50336 15.9324C2.49676 16.1396 2.5327 16.3459 2.60898 16.5387C2.68525 16.7314 2.80023 16.9065 2.94681 17.0531C3.09339 17.1997 3.26847 17.3147 3.46123 17.3909C3.65399 17.4672 3.86034 17.5032 4.06753 17.4966C4.27473 17.49 4.47837 17.441 4.66589 17.3526C4.85341 17.2642 5.02081 17.1383 5.15777 16.9827C5.16966 16.9692 5.18198 16.9561 5.19472 16.9433L12.7447 9.41001C13.0705 9.08493 13.5982 9.08552 13.9232 9.41131C14.2483 9.73711 14.2477 10.2647 13.9219 10.5898L6.3896 18.1055C6.10576 18.4222 5.76129 18.6788 5.37647 18.8602C4.9829 19.0457 4.55547 19.1485 4.12059 19.1624C3.6857 19.1762 3.2526 19.1008 2.84802 18.9407C2.44343 18.7806 2.07596 18.5393 1.7683 18.2316C1.46063 17.9239 1.21931 17.5565 1.05922 17.1519C0.899133 16.7473 0.823685 16.3142 0.837536 15.8793C0.851386 15.4444 0.95424 15.017 1.13975 14.6234C1.32113 14.2386 1.57776 13.8941 1.89438 13.6103L9.41009 6.07798C9.73516 5.75218 10.2628 5.7516 10.5886 6.07668Z" fill="white"/>
<path fill-rule="evenodd" clip-rule="evenodd" d="M14.1667 2.49992C12.3257 2.49992 10.8333 3.9923 10.8333 5.83325C10.8333 7.6742 12.3257 9.16658 14.1667 9.16658C16.0076 9.16658 17.5 7.6742 17.5 5.83325C17.5 3.9923 16.0076 2.49992 14.1667 2.49992ZM9.16667 5.83325C9.16667 3.07183 11.4052 0.833252 14.1667 0.833252C16.9281 0.833252 19.1667 3.07183 19.1667 5.83325C19.1667 8.59468 16.9281 10.8333 14.1667 10.8333C11.4052 10.8333 9.16667 8.59468 9.16667 5.83325Z" fill="white"/>
</g>
<defs>
<clipPath id="clip0_179_503">
<rect width="20" height="20" fill="white"/>
</clipPath>
</defs>
</svg>
