<svg width="18" height="18" viewBox="0 0 18 18" fill="none" xmlns="http://www.w3.org/2000/svg">
<path fill-rule="evenodd" clip-rule="evenodd" d="M16.2348 1.67774C16.403 1.82024 16.5 2.02954 16.5 2.25001V12C16.5 12.4142 16.1642 12.75 15.75 12.75C15.3358 12.75 15 12.4142 15 12V3.13535L7.5 4.38535V13.5C7.5 13.9142 7.16421 14.25 6.75 14.25C6.33579 14.25 6 13.9142 6 13.5V3.75001C6 3.38338 6.26506 3.07048 6.6267 3.01021L15.6267 1.51021C15.8442 1.47397 16.0666 1.53524 16.2348 1.67774Z" fill="white"/>
<path fill-rule="evenodd" clip-rule="evenodd" d="M16.4898 5.1267C16.5579 5.53527 16.2819 5.92169 15.8733 5.98979L6.87329 7.48979C6.46472 7.55789 6.0783 7.28187 6.0102 6.87329C5.9421 6.46472 6.21812 6.0783 6.6267 6.0102L15.6267 4.5102C16.0353 4.4421 16.4217 4.71812 16.4898 5.1267Z" fill="white"/>
<path fill-rule="evenodd" clip-rule="evenodd" d="M4.5 12C3.67157 12 3 12.6716 3 13.5C3 14.3284 3.67157 15 4.5 15C5.32843 15 6 14.3284 6 13.5C6 12.6716 5.32843 12 4.5 12ZM1.5 13.5C1.5 11.8431 2.84315 10.5 4.5 10.5C6.15685 10.5 7.5 11.8431 7.5 13.5C7.5 15.1569 6.15685 16.5 4.5 16.5C2.84315 16.5 1.5 15.1569 1.5 13.5Z" fill="white"/>
<path fill-rule="evenodd" clip-rule="evenodd" d="M13.5 10.5C12.6716 10.5 12 11.1716 12 12C12 12.8284 12.6716 13.5 13.5 13.5C14.3284 13.5 15 12.8284 15 12C15 11.1716 14.3284 10.5 13.5 10.5ZM10.5 12C10.5 10.3431 11.8431 9 13.5 9C15.1569 9 16.5 10.3431 16.5 12C16.5 13.6569 15.1569 15 13.5 15C11.8431 15 10.5 13.6569 10.5 12Z" fill="white"/>
</svg>
