<svg width="20" height="20" viewBox="0 0 20 20" fill="none" xmlns="http://www.w3.org/2000/svg">
<path fill-rule="evenodd" clip-rule="evenodd" d="M17.3838 2.52296C17.5632 2.67497 17.6667 2.89822 17.6667 3.13338V13.5334C17.6667 13.9752 17.3085 14.3334 16.8667 14.3334C16.4249 14.3334 16.0667 13.9752 16.0667 13.5334V4.07775L8.06668 5.41108V15.1334C8.06668 15.5752 7.70851 15.9334 7.26668 15.9334C6.82485 15.9334 6.46668 15.5752 6.46668 15.1334V4.73338C6.46668 4.34231 6.74941 4.00856 7.13516 3.94427L16.7352 2.34426C16.9671 2.3056 17.2044 2.37096 17.3838 2.52296Z" fill="white"/>
<path fill-rule="evenodd" clip-rule="evenodd" d="M4.86668 13.5333C3.98302 13.5333 3.26668 14.2497 3.26668 15.1333C3.26668 16.017 3.98302 16.7333 4.86668 16.7333C5.75033 16.7333 6.46668 16.017 6.46668 15.1333C6.46668 14.2497 5.75033 13.5333 4.86668 13.5333ZM1.66668 15.1333C1.66668 13.366 3.09937 11.9333 4.86668 11.9333C6.63399 11.9333 8.06668 13.366 8.06668 15.1333C8.06668 16.9007 6.63399 18.3333 4.86668 18.3333C3.09937 18.3333 1.66668 16.9007 1.66668 15.1333Z" fill="white"/>
<path fill-rule="evenodd" clip-rule="evenodd" d="M14.4667 11.9334C13.583 11.9334 12.8667 12.6497 12.8667 13.5334C12.8667 14.417 13.583 15.1334 14.4667 15.1334C15.3503 15.1334 16.0667 14.417 16.0667 13.5334C16.0667 12.6497 15.3503 11.9334 14.4667 11.9334ZM11.2667 13.5334C11.2667 11.7661 12.6994 10.3334 14.4667 10.3334C16.234 10.3334 17.6667 11.7661 17.6667 13.5334C17.6667 15.3007 16.234 16.7334 14.4667 16.7334C12.6994 16.7334 11.2667 15.3007 11.2667 13.5334Z" fill="white"/>
</svg>
