<svg width="24" height="24" viewBox="0 0 24 24" fill="none" xmlns="http://www.w3.org/2000/svg">
<path fill-rule="evenodd" clip-rule="evenodd" d="M20.5607 4.93934C20.2794 4.65804 19.8978 4.5 19.5 4.5C19.1022 4.5 18.7206 4.65804 18.4393 4.93934C18.158 5.22064 18 5.60217 18 6C18 6.39783 18.158 6.77936 18.4393 7.06066C18.7206 7.34196 19.1022 7.5 19.5 7.5C19.8978 7.5 20.2794 7.34196 20.5607 7.06066C20.842 6.77936 21 6.39783 21 6C21 5.60217 20.842 5.22064 20.5607 4.93934ZM15.75 6C15.75 5.58579 15.4142 5.25 15 5.25H3.75C3.33579 5.25 3 5.58579 3 6C3 6.41421 3.33579 6.75 3.75 6.75H15C15.4142 6.75 15.75 6.41421 15.75 6ZM20.5607 10.9393C20.2794 10.658 19.8978 10.5 19.5 10.5C19.1022 10.5 18.7206 10.658 18.4393 10.9393C18.158 11.2206 18 11.6022 18 12C18 12.3978 18.158 12.7794 18.4393 13.0607C18.7206 13.342 19.1022 13.5 19.5 13.5C19.8978 13.5 20.2794 13.342 20.5607 13.0607C20.842 12.7794 21 12.3978 21 12C21 11.6022 20.842 11.2206 20.5607 10.9393ZM15.75 12C15.75 11.5858 15.4142 11.25 15 11.25H8.25C7.83579 11.25 7.5 11.5858 7.5 12C7.5 12.4142 7.83579 12.75 8.25 12.75H15C15.4142 12.75 15.75 12.4142 15.75 12ZM20.5607 16.9393C20.2794 16.658 19.8978 16.5 19.5 16.5C19.1022 16.5 18.7206 16.658 18.4393 16.9393C18.158 17.2206 18 17.6022 18 18C18 18.3978 18.158 18.7794 18.4393 19.0607C18.7206 19.342 19.1022 19.5 19.5 19.5C19.8978 19.5 20.2794 19.342 20.5607 19.0607C20.842 18.7794 21 18.3978 21 18C21 17.6022 20.842 17.2206 20.5607 16.9393ZM15.75 18C15.75 17.5858 15.4142 17.25 15 17.25H3.75C3.33579 17.25 3 17.5858 3 18C3 18.4142 3.33579 18.75 3.75 18.75H15C15.4142 18.75 15.75 18.4142 15.75 18Z" fill="#F8F8F8"/>
</svg>
