<svg width="24" height="24" viewBox="0 0 24 24" fill="none" xmlns="http://www.w3.org/2000/svg">
<path fill-rule="evenodd" clip-rule="evenodd" d="M20 3C20.5523 3 21 3.44772 21 4V8C21 8.55228 20.5523 9 20 9H4C3.44771 9 3 8.55229 3 8V4C3 3.44771 3.44771 3 4 3H20ZM23 4C23 2.34315 21.6569 1 20 1H4C2.34315 1 1 2.34315 1 4V8C1 9.65685 2.34315 11 4 11H20C21.6569 11 23 9.65685 23 8V4ZM19 6C19 5.44772 18.5523 5 18 5H17.99C17.4377 5 16.99 5.44772 16.99 6C16.99 6.55228 17.4377 7 17.99 7H18C18.5523 7 19 6.55228 19 6ZM20 15C20.5523 15 21 15.4477 21 16V20C21 20.5523 20.5523 21 20 21H4C3.44771 21 3 20.5523 3 20V16C3 15.4477 3.44771 15 4 15H20ZM23 16C23 14.3431 21.6569 13 20 13H4C2.34315 13 1 14.3431 1 16V20C1 21.6569 2.34315 23 4 23H20C21.6569 23 23 21.6569 23 20V16ZM19 18C19 17.4477 18.5523 17 18 17H17.99C17.4377 17 16.99 17.4477 16.99 18C16.99 18.5523 17.4377 19 17.99 19H18C18.5523 19 19 18.5523 19 18Z" fill="white"/>
</svg>
