<svg width="24" height="24" viewBox="0 0 24 24" fill="none" xmlns="http://www.w3.org/2000/svg">
<path d="M22.5459 15.0801C22.6508 15.1846 22.734 15.3088 22.7908 15.4455C22.8476 15.5823 22.8768 15.7289 22.8768 15.877C22.8768 16.025 22.8476 16.1716 22.7908 16.3084C22.734 16.4451 22.6508 16.5693 22.5459 16.6738L20.2959 18.9238C20.0846 19.1352 19.7979 19.2539 19.4991 19.2539C19.2002 19.2539 18.9135 19.1352 18.7022 18.9238C18.4908 18.7125 18.3721 18.4258 18.3721 18.127C18.3721 17.8281 18.4908 17.5414 18.7022 17.3301L19.0312 17.001H18.8353C17.7013 16.9998 16.5839 16.7285 15.5756 16.2095C14.5672 15.6906 13.697 14.939 13.0369 14.017L9.12937 8.54289C8.6778 7.91186 8.08237 7.3975 7.39242 7.04242C6.70246 6.68733 5.93784 6.50174 5.16187 6.50101H3C2.70163 6.50101 2.41548 6.38249 2.2045 6.17151C1.99353 5.96053 1.875 5.67438 1.875 5.37601C1.875 5.07765 1.99353 4.7915 2.2045 4.58052C2.41548 4.36954 2.70163 4.25101 3 4.25101H5.16187C6.29589 4.25227 7.4133 4.52358 8.42162 5.04249C9.42994 5.56141 10.3002 6.31301 10.9603 7.23508L14.8706 12.7091C15.3222 13.3402 15.9176 13.8545 16.6076 14.2096C17.2975 14.5647 18.0622 14.7503 18.8381 14.751H19.0312L18.7012 14.422C18.4899 14.2106 18.3712 13.924 18.3712 13.6251C18.3712 13.3262 18.4899 13.0395 18.7012 12.8282C18.9126 12.6169 19.1992 12.4981 19.4981 12.4981C19.797 12.4981 20.0837 12.6169 20.295 12.8282L22.5459 15.0801ZM13.5816 8.27195C13.8061 8.46833 14.0995 8.56749 14.3971 8.54762C14.6947 8.52776 14.9723 8.39049 15.1687 8.16601C15.6264 7.64297 16.1905 7.22382 16.8234 6.93666C17.4562 6.64949 18.1432 6.50096 18.8381 6.50101H19.0312L18.7012 6.83008C18.4899 7.04142 18.3712 7.32807 18.3712 7.62695C18.3712 7.92584 18.4899 8.21248 18.7012 8.42383C18.9126 8.63517 19.1992 8.7539 19.4981 8.7539C19.797 8.7539 20.0837 8.63517 20.295 8.42383L22.545 6.17383C22.6499 6.06931 22.7331 5.94512 22.7899 5.80837C22.8467 5.67163 22.8759 5.52502 22.8759 5.37695C22.8759 5.22889 22.8467 5.08228 22.7899 4.94553C22.7331 4.80879 22.6499 4.68459 22.545 4.58008L20.295 2.33008C20.0837 2.11873 19.797 2 19.4981 2C19.1992 2 18.9126 2.11873 18.7012 2.33008C18.4899 2.54142 18.3712 2.82807 18.3712 3.12695C18.3712 3.42584 18.4899 3.71248 18.7012 3.92383L19.0312 4.25101H18.8353C17.8194 4.2515 16.8153 4.46925 15.8904 4.88965C14.9655 5.31006 14.1412 5.92339 13.4728 6.68851C13.2779 6.91322 13.18 7.20594 13.2004 7.50268C13.2207 7.79941 13.3578 8.076 13.5816 8.27195ZM10.4184 12.9801C10.1939 12.7837 9.90055 12.6845 9.60291 12.7044C9.30527 12.7243 9.0277 12.8615 8.83125 13.086C8.37364 13.6091 7.8095 14.0282 7.17664 14.3154C6.54378 14.6025 5.85684 14.7511 5.16187 14.751H3C2.70163 14.751 2.41548 14.8695 2.2045 15.0805C1.99353 15.2915 1.875 15.5776 1.875 15.876C1.875 16.1744 1.99353 16.4605 2.2045 16.6715C2.41548 16.8825 2.70163 17.001 3 17.001H5.16187C6.17783 17.0005 7.18192 16.7828 8.10681 16.3624C9.0317 15.942 9.85599 15.3286 10.5244 14.5635C10.7196 14.3392 10.818 14.0467 10.7982 13.7499C10.7783 13.4532 10.6418 13.1764 10.4184 12.9801Z" fill="#F8F8F8"/>
<circle cx="12" cy="21" r="1" fill="#D9D9D9"/>
</svg>
