<svg width="24" height="24" viewBox="0 0 24 24" fill="none" xmlns="http://www.w3.org/2000/svg">
<path d="M22.5459 16.4541C22.6508 16.5586 22.734 16.6828 22.7908 16.8196C22.8476 16.9563 22.8768 17.1029 22.8768 17.251C22.8768 17.399 22.8476 17.5456 22.7908 17.6824C22.734 17.8191 22.6508 17.9433 22.5459 18.0478L20.2959 20.2978C20.0846 20.5092 19.7979 20.6279 19.4991 20.6279C19.2002 20.6279 18.9135 20.5092 18.7022 20.2978C18.4908 20.0865 18.3721 19.7999 18.3721 19.501C18.3721 19.2021 18.4908 18.9154 18.7022 18.7041L19.0312 18.375H18.8353C17.7013 18.3738 16.5839 18.1025 15.5756 17.5836C14.5672 17.0646 13.697 16.313 13.0369 15.391L9.12937 9.91691C8.6778 9.28588 8.08237 8.77152 7.39242 8.41644C6.70247 8.06135 5.93784 7.87576 5.16188 7.87504H3C2.70163 7.87504 2.41548 7.75651 2.2045 7.54553C1.99353 7.33455 1.875 7.04841 1.875 6.75004C1.875 6.45167 1.99353 6.16552 2.2045 5.95454C2.41548 5.74356 2.70163 5.62504 3 5.62504H5.16188C6.29589 5.62629 7.4133 5.8976 8.42162 6.41652C9.42994 6.93543 10.3002 7.68703 10.9603 8.6091L14.8706 14.0832C15.3222 14.7142 15.9176 15.2286 16.6076 15.5836C17.2975 15.9387 18.0622 16.1243 18.8381 16.125H19.0312L18.7013 15.796C18.4899 15.5846 18.3712 15.298 18.3712 14.9991C18.3712 14.7002 18.4899 14.4136 18.7013 14.2022C18.9126 13.9909 19.1992 13.8721 19.4981 13.8721C19.797 13.8721 20.0837 13.9909 20.295 14.2022L22.5459 16.4541ZM13.5816 9.64598C13.8061 9.84235 14.0995 9.94151 14.3971 9.92164C14.6947 9.90178 14.9723 9.76451 15.1688 9.54004C15.6264 9.017 16.1905 8.59784 16.8234 8.31068C17.4562 8.02352 18.1432 7.87498 18.8381 7.87504H19.0312L18.7013 8.2041C18.4899 8.41544 18.3712 8.70209 18.3712 9.00098C18.3712 9.29986 18.4899 9.58651 18.7013 9.79785C18.9126 10.0092 19.1992 10.1279 19.4981 10.1279C19.797 10.1279 20.0837 10.0092 20.295 9.79785L22.545 7.54785C22.6499 7.44333 22.7331 7.31914 22.7899 7.1824C22.8467 7.04565 22.8759 6.89904 22.8759 6.75098C22.8759 6.60291 22.8467 6.4563 22.7899 6.31955C22.7331 6.18281 22.6499 6.05862 22.545 5.9541L20.295 3.7041C20.0837 3.49276 19.797 3.37402 19.4981 3.37402C19.1992 3.37402 18.9126 3.49276 18.7013 3.7041C18.4899 3.91544 18.3712 4.20209 18.3712 4.50097C18.3712 4.79986 18.4899 5.08651 18.7013 5.29785L19.0312 5.62504H18.8353C17.8194 5.62552 16.8153 5.84327 15.8904 6.26368C14.9655 6.68408 14.1412 7.29741 13.4728 8.06254C13.2779 8.28724 13.18 8.57997 13.2004 8.8767C13.2207 9.17344 13.3578 9.45003 13.5816 9.64598ZM10.4184 14.3541C10.1939 14.1577 9.90055 14.0586 9.60291 14.0784C9.30527 14.0983 9.0277 14.2356 8.83125 14.46C8.37364 14.9831 7.8095 15.4022 7.17664 15.6894C6.54378 15.9766 5.85684 16.1251 5.16188 16.125H3C2.70163 16.125 2.41548 16.2436 2.2045 16.4545C1.99353 16.6655 1.875 16.9517 1.875 17.25C1.875 17.5484 1.99353 17.8346 2.2045 18.0455C2.41548 18.2565 2.70163 18.375 3 18.375H5.16188C6.17783 18.3746 7.18192 18.1568 8.10681 17.7364C9.0317 17.316 9.85599 16.7027 10.5244 15.9375C10.7196 15.7132 10.818 15.4207 10.7982 15.124C10.7783 14.8272 10.6418 14.5504 10.4184 14.3541Z" fill="#F8F8F8"/>
</svg>
