<svg width="16" height="16" viewBox="0 0 16 16" fill="none" xmlns="http://www.w3.org/2000/svg">
<path fill-rule="evenodd" clip-rule="evenodd" d="M3.33337 2.66667C3.15656 2.66667 2.98699 2.73691 2.86197 2.86193C2.73694 2.98696 2.66671 3.15652 2.66671 3.33334V12.6667C2.66671 12.8435 2.73694 13.013 2.86197 13.1381C2.98699 13.2631 3.15656 13.3333 3.33337 13.3333H6.00004C6.36823 13.3333 6.66671 13.6318 6.66671 14C6.66671 14.3682 6.36823 14.6667 6.00004 14.6667H3.33337C2.80294 14.6667 2.29423 14.456 1.91916 14.0809C1.54409 13.7058 1.33337 13.1971 1.33337 12.6667V3.33334C1.33337 2.8029 1.54409 2.2942 1.91916 1.91912C2.29423 1.54405 2.80294 1.33334 3.33337 1.33334H6.00004C6.36823 1.33334 6.66671 1.63181 6.66671 2C6.66671 2.36819 6.36823 2.66667 6.00004 2.66667H3.33337Z" fill="#CBC1E0"/>
<path fill-rule="evenodd" clip-rule="evenodd" d="M10.1953 4.19526C10.4556 3.93491 10.8777 3.93491 11.1381 4.19526L14.4714 7.5286C14.7318 7.78894 14.7318 8.21106 14.4714 8.4714L11.1381 11.8047C10.8777 12.0651 10.4556 12.0651 10.1953 11.8047C9.93491 11.5444 9.93491 11.1223 10.1953 10.8619L13.0572 8L10.1953 5.13807C9.93491 4.87772 9.93491 4.45561 10.1953 4.19526Z" fill="#CBC1E0"/>
<path fill-rule="evenodd" clip-rule="evenodd" d="M5.33337 8C5.33337 7.63181 5.63185 7.33334 6.00004 7.33334H14C14.3682 7.33334 14.6667 7.63181 14.6667 8C14.6667 8.36819 14.3682 8.66667 14 8.66667H6.00004C5.63185 8.66667 5.33337 8.36819 5.33337 8Z" fill="#CBC1E0"/>
</svg>
