<svg width="14" height="14" viewBox="0 0 14 14" fill="none" xmlns="http://www.w3.org/2000/svg">
<path d="M7 1.3125C8.12488 1.3125 9.2245 1.64607 10.1598 2.27102C11.0951 2.89597 11.8241 3.78423 12.2546 4.82349C12.685 5.86274 12.7977 7.00631 12.5782 8.10958C12.3588 9.21284 11.8171 10.2263 11.0217 11.0217C10.2263 11.8171 9.21284 12.3588 8.10957 12.5782C7.00631 12.7977 5.86274 12.685 4.82349 12.2546C3.78423 11.8241 2.89596 11.0951 2.27101 10.1598C1.64606 9.2245 1.3125 8.12488 1.3125 7C1.31409 5.49207 1.91382 4.04636 2.98009 2.98009C4.04635 1.91382 5.49207 1.31409 7 1.3125ZM7 11.8125C7.95182 11.8125 8.88227 11.5303 9.67368 11.0014C10.4651 10.4726 11.0819 9.72103 11.4462 8.84166C11.8104 7.96229 11.9057 6.99466 11.72 6.06113C11.5343 5.12759 11.076 4.27009 10.4029 3.59705C9.72991 2.92401 8.8724 2.46566 7.93887 2.27997C7.00534 2.09428 6.0377 2.18958 5.15833 2.55383C4.27896 2.91808 3.52735 3.53491 2.99855 4.32632C2.46975 5.11773 2.1875 6.04818 2.1875 7C2.18894 8.27591 2.69644 9.49915 3.59864 10.4014C4.50085 11.3036 5.72409 11.8111 7 11.8125ZM5.30086 9.28266C5.35512 9.38518 5.44788 9.46196 5.55874 9.49611C5.6696 9.53026 5.78948 9.51899 5.89203 9.46477C6.23263 9.28168 6.6133 9.18585 7 9.18585C7.38669 9.18585 7.76736 9.28168 8.10797 9.46477C8.21023 9.51618 8.32857 9.52547 8.43761 9.49064C8.54664 9.45581 8.63768 9.37964 8.6912 9.27846C8.74473 9.17728 8.75647 9.05916 8.72391 8.94943C8.69134 8.83969 8.61707 8.74709 8.51703 8.69148C8.04959 8.44424 7.5288 8.31499 7 8.31499C6.4712 8.31499 5.95041 8.44424 5.48297 8.69148C5.38044 8.74575 5.30366 8.83851 5.26951 8.94937C5.23536 9.06022 5.24664 9.18011 5.30086 9.28266ZM3.55086 6.22016C3.57791 6.27088 3.6147 6.31577 3.65911 6.35226C3.70353 6.38876 3.7547 6.41615 3.8097 6.43286C3.86471 6.44957 3.92246 6.45527 3.97967 6.44965C4.03688 6.44402 4.09243 6.42718 4.14312 6.40008C5.02165 5.92952 6.00283 5.6833 6.99945 5.6833C7.99607 5.6833 8.97725 5.92952 9.85578 6.40008C9.95818 6.45476 10.0781 6.46652 10.1892 6.43278C10.3002 6.39904 10.3934 6.32255 10.448 6.22016C10.5027 6.11776 10.5145 5.99783 10.4807 5.88676C10.447 5.77569 10.3705 5.68257 10.2681 5.62789C9.26265 5.08978 8.13987 4.80823 6.99945 4.80823C5.85903 4.80823 4.73626 5.08978 3.73078 5.62789C3.67996 5.65499 3.635 5.69186 3.59846 5.73638C3.56193 5.7809 3.53454 5.83219 3.51788 5.88732C3.50121 5.94245 3.49559 6.00033 3.50135 6.05763C3.5071 6.11493 3.52411 6.17054 3.5514 6.22125L3.55086 6.22016ZM4.42586 7.75141C4.4804 7.85379 4.57338 7.93032 4.68435 7.96416C4.79531 7.99801 4.91517 7.98639 5.01758 7.93187C5.62751 7.60652 6.30817 7.43633 6.99945 7.43633C7.69074 7.43633 8.37139 7.60652 8.98133 7.93187C9.0835 7.98406 9.20209 7.99403 9.31154 7.95962C9.421 7.92521 9.51255 7.84918 9.56648 7.74791C9.62042 7.64664 9.63241 7.52824 9.59988 7.41822C9.56735 7.30819 9.4929 7.21535 9.39258 7.15969C8.65604 6.76692 7.83416 6.56148 6.99945 6.56148C6.16474 6.56148 5.34286 6.76692 4.60633 7.15969C4.55553 7.18674 4.51058 7.22355 4.47404 7.26801C4.43749 7.31247 4.41008 7.3637 4.39337 7.41876C4.37665 7.47383 4.37097 7.53165 4.37664 7.58892C4.38231 7.64619 4.39922 7.70178 4.4264 7.7525L4.42586 7.75141Z" fill="#1DB954"/>
</svg>
