<svg width="16" height="16" viewBox="0 0 16 16" fill="none" xmlns="http://www.w3.org/2000/svg">
<path d="M13.3333 13.3333V12H11.5L11.7667 11.7667C12.3111 11.2222 12.7082 10.6307 12.958 9.99199C13.2078 9.35332 13.3329 8.70043 13.3333 8.03332C13.3333 6.79999 12.9638 5.70288 12.2247 4.74199C11.4856 3.7811 10.5218 3.14488 9.33333 2.83332V4.23332C10.1333 4.52221 10.7778 5.01399 11.2667 5.70866C11.7556 6.40332 12 7.17821 12 8.03332C12 8.53332 11.9056 9.01954 11.7167 9.49199C11.5278 9.96443 11.2333 10.4004 10.8333 10.8L10.6667 10.9667V9.33332H9.33333V13.3333H13.3333ZM6.66666 13.1667V11.7667C5.86666 11.4778 5.22222 10.9862 4.73333 10.292C4.24444 9.59777 3.99999 8.82266 3.99999 7.96666C3.99999 7.46666 4.09444 6.98066 4.28333 6.50866C4.47222 6.03666 4.76666 5.60043 5.16666 5.19999L5.33333 5.03332V6.66666H6.66666V2.66666H2.66666V3.99999H4.49999L4.23333 4.23332C3.68888 4.77777 3.29155 5.36954 3.04133 6.00866C2.79111 6.64777 2.66622 7.30043 2.66666 7.96666C2.66666 9.19999 3.036 10.2973 3.77466 11.2587C4.51333 12.22 5.47733 12.856 6.66666 13.1667Z" fill="#F8F8F8"/>
</svg>
