<svg width="20" height="20" viewBox="0 0 20 20" fill="none" xmlns="http://www.w3.org/2000/svg">
<path fill-rule="evenodd" clip-rule="evenodd" d="M4.5537 12.887C5.3351 12.1056 6.39491 11.6666 7.49998 11.6666H12.5C13.605 11.6666 14.6649 12.1056 15.4463 12.887C16.2277 13.6684 16.6666 14.7282 16.6666 15.8333V17.5C16.6666 17.9602 16.2935 18.3333 15.8333 18.3333C15.3731 18.3333 15 17.9602 15 17.5V15.8333C15 15.1703 14.7366 14.5344 14.2677 14.0655C13.7989 13.5967 13.163 13.3333 12.5 13.3333H7.49998C6.83694 13.3333 6.20105 13.5967 5.73221 14.0655C5.26337 14.5344 4.99998 15.1703 4.99998 15.8333V17.5C4.99998 17.9602 4.62688 18.3333 4.16665 18.3333C3.70641 18.3333 3.33331 17.9602 3.33331 17.5V15.8333C3.33331 14.7282 3.7723 13.6684 4.5537 12.887Z" fill="#CBC1E0"/>
<path fill-rule="evenodd" clip-rule="evenodd" d="M9.99998 3.33329C8.61927 3.33329 7.49998 4.45258 7.49998 5.83329C7.49998 7.214 8.61927 8.33329 9.99998 8.33329C11.3807 8.33329 12.5 7.214 12.5 5.83329C12.5 4.45258 11.3807 3.33329 9.99998 3.33329ZM5.83331 5.83329C5.83331 3.53211 7.69879 1.66663 9.99998 1.66663C12.3012 1.66663 14.1666 3.53211 14.1666 5.83329C14.1666 8.13448 12.3012 9.99996 9.99998 9.99996C7.69879 9.99996 5.83331 8.13448 5.83331 5.83329Z" fill="#CBC1E0"/>
</svg>
