<svg width="20" height="20" viewBox="0 0 20 20" fill="none" xmlns="http://www.w3.org/2000/svg">
<path fill-rule="evenodd" clip-rule="evenodd" d="M4.41072 4.41076C4.08529 4.7362 4.08529 5.26384 4.41072 5.58928L14.4107 15.5893C14.7362 15.9147 15.2638 15.9147 15.5892 15.5893C15.9147 15.2638 15.9147 14.7362 15.5892 14.4108L5.58923 4.41076C5.2638 4.08533 4.73616 4.08533 4.41072 4.41076Z" fill="white"/>
<path fill-rule="evenodd" clip-rule="evenodd" d="M15.5892 4.41076C15.2638 4.08533 14.7362 4.08533 14.4107 4.41076L4.41072 14.4108C4.08529 14.7362 4.08529 15.2638 4.41072 15.5893C4.73616 15.9147 5.2638 15.9147 5.58923 15.5893L15.5892 5.58928C15.9147 5.26384 15.9147 4.7362 15.5892 4.41076Z" fill="white"/>
</svg>
