<svg width="20" height="20" viewBox="0 0 20 20" fill="none" xmlns="http://www.w3.org/2000/svg">
<path fill-rule="evenodd" clip-rule="evenodd" d="M3.43587 5.48056C3.30991 5.52101 3.19521 5.59093 3.10142 5.68472C3.00399 5.78215 2.93232 5.90214 2.89268 6.03388C2.34251 8.64931 2.34251 11.3506 2.89268 13.966C2.93232 14.0978 3.00399 14.2178 3.10142 14.3152C3.19521 14.409 3.30991 14.4789 3.43587 14.5194C7.78277 15.2341 12.2172 15.2341 16.5641 14.5194C16.6901 14.4789 16.8048 14.409 16.8986 14.3152C16.996 14.2178 17.0677 14.0978 17.1073 13.966C17.6575 11.3506 17.6575 8.64932 17.1073 6.03389C17.0677 5.90215 16.996 5.78215 16.8986 5.68472C16.8048 5.59093 16.6901 5.52101 16.5641 5.48056C12.2172 4.76598 7.78278 4.76598 3.43587 5.48056ZM3.1138 3.8445C7.67352 3.08911 12.3265 3.08911 16.8862 3.8445C16.9145 3.84919 16.9426 3.85535 16.9703 3.86295C17.3888 3.97769 17.7702 4.19937 18.0771 4.50621C18.3839 4.81305 18.6056 5.19446 18.7203 5.61295C18.7247 5.6287 18.7285 5.64457 18.7319 5.66054C19.3382 8.52172 19.3382 11.4782 18.7319 14.3394C18.7285 14.3553 18.7247 14.3712 18.7203 14.387C18.6056 14.8055 18.3839 15.1869 18.0771 15.4937C17.7702 15.8005 17.3888 16.0222 16.9703 16.137C16.9426 16.1446 16.9146 16.1507 16.8862 16.1554C12.3265 16.911 7.6735 16.911 3.11377 16.1554C3.08543 16.1507 3.05736 16.1446 3.02965 16.137C2.61117 16.0222 2.22975 15.8005 1.92291 15.4937C1.61608 15.1869 1.39439 14.8055 1.27965 14.387C1.27534 14.3712 1.27148 14.3553 1.2681 14.3394C0.661814 11.4782 0.661814 8.52172 1.2681 5.66054C1.27148 5.64457 1.27534 5.6287 1.27965 5.61295C1.39439 5.19446 1.61608 4.81304 1.92291 4.50621C2.22975 4.19937 2.61117 3.97769 3.02965 3.86295C3.05736 3.85535 3.08545 3.84919 3.1138 3.8445Z" fill="#CBC1E0"/>
<path fill-rule="evenodd" clip-rule="evenodd" d="M7.92275 6.77479C8.18401 6.62687 8.50464 6.63092 8.76208 6.78538L12.9287 9.28538C13.1798 9.43598 13.3333 9.70724 13.3333 9.99996C13.3333 10.2927 13.1798 10.5639 12.9287 10.7145L8.76208 13.2145C8.50464 13.369 8.18401 13.373 7.92275 13.2251C7.66149 13.0772 7.5 12.8002 7.5 12.5V7.49996C7.5 7.19973 7.66149 6.92271 7.92275 6.77479ZM9.16667 8.97178V11.0281L10.8803 9.99996L9.16667 8.97178Z" fill="#CBC1E0"/>
</svg>
